<mxfile host="65bd71144e">
    <diagram name="第 1 页" id="CYL-rokRkCU8ogtK8-tq">
        <mxGraphModel dx="457" dy="354" grid="1" gridSize="10" guides="1" tooltips="1" connect="1" arrows="1" fold="1" page="1" pageScale="1" pageWidth="827" pageHeight="1169" math="0" shadow="0">
            <root>
                <mxCell id="0"/>
                <mxCell id="1" parent="0"/>
                <mxCell id="FOU07dsEIMZlqrynYJpF-19" style="edgeStyle=orthogonalEdgeStyle;rounded=0;orthogonalLoop=1;jettySize=auto;html=1;exitX=1;exitY=0.5;exitDx=0;exitDy=0;entryX=0;entryY=0.5;entryDx=0;entryDy=0;curved=0;fontColor=#050000;" parent="1" source="FOU07dsEIMZlqrynYJpF-1" target="FOU07dsEIMZlqrynYJpF-3" edge="1">
                    <mxGeometry relative="1" as="geometry">
                        <mxPoint x="170" y="70" as="targetPoint"/>
                        <Array as="points">
                            <mxPoint x="425" y="100"/>
                            <mxPoint x="120" y="100"/>
                        </Array>
                    </mxGeometry>
                </mxCell>
                <mxCell id="FOU07dsEIMZlqrynYJpF-20" style="edgeStyle=orthogonalEdgeStyle;rounded=0;orthogonalLoop=1;jettySize=auto;html=1;exitX=1;exitY=0.5;exitDx=0;exitDy=0;entryX=0;entryY=0.5;entryDx=0;entryDy=0;curved=0;fontColor=#050000;" parent="1" source="FOU07dsEIMZlqrynYJpF-1" target="FOU07dsEIMZlqrynYJpF-5" edge="1">
                    <mxGeometry relative="1" as="geometry">
                        <Array as="points">
                            <mxPoint x="425" y="100"/>
                            <mxPoint x="355" y="100"/>
                        </Array>
                    </mxGeometry>
                </mxCell>
                <mxCell id="FOU07dsEIMZlqrynYJpF-46" style="edgeStyle=orthogonalEdgeStyle;rounded=0;orthogonalLoop=1;jettySize=auto;html=1;exitX=1;exitY=0.5;exitDx=0;exitDy=0;entryX=0;entryY=0.5;entryDx=0;entryDy=0;curved=0;fontColor=#050000;" parent="1" source="FOU07dsEIMZlqrynYJpF-1" target="FOU07dsEIMZlqrynYJpF-8" edge="1">
                    <mxGeometry relative="1" as="geometry">
                        <Array as="points">
                            <mxPoint x="425" y="100"/>
                            <mxPoint x="586" y="100"/>
                        </Array>
                    </mxGeometry>
                </mxCell>
                <mxCell id="FOU07dsEIMZlqrynYJpF-1" value="&lt;font style=&quot;font-size: 18px;&quot;&gt;医疗排班系统&lt;/font&gt;" style="rounded=1;whiteSpace=wrap;html=1;fillColor=#dae8fc;strokeColor=#6c8ebf;direction=south;fontColor=#050000;" parent="1" vertex="1">
                    <mxGeometry x="350" y="20" width="150" height="60" as="geometry"/>
                </mxCell>
                <mxCell id="5" style="edgeStyle=none;html=1;exitX=1;exitY=0.5;exitDx=0;exitDy=0;entryX=0.5;entryY=0;entryDx=0;entryDy=0;fontColor=#050000;" edge="1" parent="1" source="FOU07dsEIMZlqrynYJpF-3" target="4">
                    <mxGeometry relative="1" as="geometry"/>
                </mxCell>
                <mxCell id="6" style="edgeStyle=none;html=1;exitX=1;exitY=0.5;exitDx=0;exitDy=0;entryX=0.5;entryY=0;entryDx=0;entryDy=0;fontColor=#050000;" edge="1" parent="1" source="FOU07dsEIMZlqrynYJpF-3" target="2">
                    <mxGeometry relative="1" as="geometry"/>
                </mxCell>
                <mxCell id="7" style="edgeStyle=none;html=1;exitX=1;exitY=0.5;exitDx=0;exitDy=0;entryX=0.5;entryY=0;entryDx=0;entryDy=0;fontColor=#050000;" edge="1" parent="1" source="FOU07dsEIMZlqrynYJpF-3" target="3">
                    <mxGeometry relative="1" as="geometry"/>
                </mxCell>
                <mxCell id="FOU07dsEIMZlqrynYJpF-3" value="&lt;span style=&quot;font-size: 15px;&quot;&gt;病人模块&lt;/span&gt;" style="rounded=0;whiteSpace=wrap;html=1;fillColor=#d5e8d4;strokeColor=#82b366;direction=south;fontColor=#050000;" parent="1" vertex="1">
                    <mxGeometry x="60" y="110" width="120" height="50" as="geometry"/>
                </mxCell>
                <mxCell id="9" style="edgeStyle=none;html=1;exitX=1;exitY=0.5;exitDx=0;exitDy=0;entryX=0.5;entryY=0;entryDx=0;entryDy=0;fontColor=#050000;" edge="1" parent="1" source="FOU07dsEIMZlqrynYJpF-5" target="8">
                    <mxGeometry relative="1" as="geometry"/>
                </mxCell>
                <mxCell id="14" style="edgeStyle=none;html=1;exitX=1;exitY=0.5;exitDx=0;exitDy=0;entryX=0.5;entryY=0;entryDx=0;entryDy=0;fontColor=#050000;" edge="1" parent="1" source="FOU07dsEIMZlqrynYJpF-5" target="10">
                    <mxGeometry relative="1" as="geometry"/>
                </mxCell>
                <mxCell id="20" style="edgeStyle=none;html=1;exitX=1;exitY=0.5;exitDx=0;exitDy=0;entryX=0.5;entryY=0;entryDx=0;entryDy=0;fontColor=#050000;" edge="1" parent="1" source="FOU07dsEIMZlqrynYJpF-5" target="19">
                    <mxGeometry relative="1" as="geometry"/>
                </mxCell>
                <mxCell id="FOU07dsEIMZlqrynYJpF-5" value="&lt;span style=&quot;font-size: 15px;&quot;&gt;医生模块&lt;/span&gt;" style="rounded=0;whiteSpace=wrap;html=1;fillColor=#d5e8d4;strokeColor=#82b366;direction=south;fontColor=#050000;" parent="1" vertex="1">
                    <mxGeometry x="300" y="110" width="110" height="50" as="geometry"/>
                </mxCell>
                <mxCell id="15" style="edgeStyle=none;html=1;exitX=1;exitY=0.5;exitDx=0;exitDy=0;entryX=0.25;entryY=0;entryDx=0;entryDy=0;fontColor=#050000;" edge="1" parent="1" source="FOU07dsEIMZlqrynYJpF-8" target="11">
                    <mxGeometry relative="1" as="geometry"/>
                </mxCell>
                <mxCell id="16" style="edgeStyle=none;html=1;exitX=1;exitY=0.5;exitDx=0;exitDy=0;entryX=0.5;entryY=0;entryDx=0;entryDy=0;fontColor=#050000;" edge="1" parent="1" source="FOU07dsEIMZlqrynYJpF-8" target="13">
                    <mxGeometry relative="1" as="geometry"/>
                </mxCell>
                <mxCell id="17" style="edgeStyle=none;html=1;exitX=1;exitY=0.5;exitDx=0;exitDy=0;entryX=0.5;entryY=0;entryDx=0;entryDy=0;fontColor=#050000;" edge="1" parent="1" source="FOU07dsEIMZlqrynYJpF-8" target="12">
                    <mxGeometry relative="1" as="geometry"/>
                </mxCell>
                <mxCell id="FOU07dsEIMZlqrynYJpF-8" value="&lt;span style=&quot;font-size: 15px;&quot;&gt;治疗流程管理模块&lt;/span&gt;" style="rounded=0;whiteSpace=wrap;html=1;fillColor=#d5e8d4;strokeColor=#82b366;direction=south;fontColor=#050000;" parent="1" vertex="1">
                    <mxGeometry x="520" y="110" width="132" height="50" as="geometry"/>
                </mxCell>
                <mxCell id="2" value="查看治疗流程" style="rounded=0;whiteSpace=wrap;html=1;fontColor=#000000;rotation=0;fillColor=#fa6800;strokeColor=#C73500;" vertex="1" parent="1">
                    <mxGeometry x="30" y="180" width="40" height="90" as="geometry"/>
                </mxCell>
                <mxCell id="3" value="确认项目结束" style="rounded=0;whiteSpace=wrap;html=1;fontColor=#000000;rotation=0;fillColor=#fa6800;strokeColor=#C73500;" vertex="1" parent="1">
                    <mxGeometry x="160" y="180" width="40" height="90" as="geometry"/>
                </mxCell>
                <mxCell id="4" value="确认项目开始" style="rounded=0;whiteSpace=wrap;html=1;fontColor=#000000;rotation=0;fillColor=#fa6800;strokeColor=#C73500;" vertex="1" parent="1">
                    <mxGeometry x="100" y="180" width="40" height="90" as="geometry"/>
                </mxCell>
                <mxCell id="8" value="录入诊疗单" style="rounded=0;whiteSpace=wrap;html=1;fontColor=#000000;rotation=0;fillColor=#fa6800;strokeColor=#C73500;" vertex="1" parent="1">
                    <mxGeometry x="250" y="180" width="40" height="90" as="geometry"/>
                </mxCell>
                <mxCell id="10" value="开启治疗流程" style="rounded=0;whiteSpace=wrap;html=1;fontColor=#000000;rotation=0;fillColor=#fa6800;strokeColor=#C73500;" vertex="1" parent="1">
                    <mxGeometry x="310" y="180" width="40" height="90" as="geometry"/>
                </mxCell>
                <mxCell id="11" value="病人叫号" style="rounded=0;whiteSpace=wrap;html=1;fontColor=#000000;rotation=0;fillColor=#fa6800;strokeColor=#C73500;" vertex="1" parent="1">
                    <mxGeometry x="520" y="180" width="40" height="90" as="geometry"/>
                </mxCell>
                <mxCell id="12" value="治疗流程录入/修改" style="rounded=0;whiteSpace=wrap;html=1;fontColor=#000000;rotation=0;fillColor=#fa6800;strokeColor=#C73500;" vertex="1" parent="1">
                    <mxGeometry x="641" y="180" width="40" height="90" as="geometry"/>
                </mxCell>
                <mxCell id="13" value="医生分配" style="rounded=0;whiteSpace=wrap;html=1;fontColor=#000000;rotation=0;fillColor=#fa6800;strokeColor=#C73500;" vertex="1" parent="1">
                    <mxGeometry x="575" y="180" width="40" height="90" as="geometry"/>
                </mxCell>
                <mxCell id="19" value="结束治疗项目" style="rounded=0;whiteSpace=wrap;html=1;fontColor=#000000;rotation=0;fillColor=#fa6800;strokeColor=#C73500;" vertex="1" parent="1">
                    <mxGeometry x="370" y="180" width="40" height="90" as="geometry"/>
                </mxCell>
            </root>
        </mxGraphModel>
    </diagram>
</mxfile>